<?xml version="1.0" encoding="UTF-8" standalone="no"?>
<svg
   xmlns:dc="http://purl.org/dc/elements/1.1/"
   xmlns:cc="http://creativecommons.org/ns#"
   xmlns:rdf="http://www.w3.org/1999/02/22-rdf-syntax-ns#"
   xmlns:svg="http://www.w3.org/2000/svg"
   xmlns="http://www.w3.org/2000/svg"
   xmlns:sodipodi="http://sodipodi.sourceforge.net/DTD/sodipodi-0.dtd"
   xmlns:inkscape="http://www.inkscape.org/namespaces/inkscape"
   height="96px"
   width="132px"
   version="1.1"
   viewBox="0 0 132 96"
   id="svg2"
   inkscape:version="0.91 r13725"
   sodipodi:docname="logo-crowdgenie-subpage.svg">
  <metadata
     id="metadata12">
    <rdf:RDF>
      <cc:Work
         rdf:about="">
        <dc:format>image/svg+xml</dc:format>
        <dc:type
           rdf:resource="http://purl.org/dc/dcmitype/StillImage" />
        <dc:title></dc:title>
      </cc:Work>
    </rdf:RDF>
  </metadata>
  <defs
     id="defs10" />
  <sodipodi:namedview
     pagecolor="#ffffff"
     bordercolor="#666666"
     borderopacity="1"
     objecttolerance="10"
     gridtolerance="10"
     guidetolerance="10"
     inkscape:pageopacity="0"
     inkscape:pageshadow="2"
     inkscape:window-width="1765"
     inkscape:window-height="1112"
     id="namedview8"
     showgrid="false"
     inkscape:zoom="4.9166667"
     inkscape:cx="97.547188"
     inkscape:cy="47.769029"
     inkscape:window-x="0"
     inkscape:window-y="0"
     inkscape:window-maximized="0"
     inkscape:current-layer="g4" />
  <g
     id="g4"
     transform="translate(0,40)"
     style="fill:none;fill-rule:evenodd">
    <path
       style="fill:#662d91;fill-opacity:1"
       d="m 103.27467,52.7031 c -0.78321,-0.11542 -1.39471,-0.4131 -1.97399,-0.96094 -0.92928,-0.87884 -1.28611,-1.98145 -1.20154,-3.71275 0.0941,-1.92671 0.88054,-3.12032 2.44966,-3.71797 0.65439,-0.24924 2.50412,-0.25168 3.1516,-0.004 0.61991,0.23698 1.08953,0.58625 1.43492,1.06718 0.31286,0.43565 0.659,1.19986 0.57947,1.27939 -0.0348,0.0348 -1.95295,0.43048 -2.08692,0.43048 -0.0134,0 -0.0246,-0.0764 -0.0248,-0.1697 -9.7e-4,-0.2863 -0.36194,-0.78178 -0.69613,-0.9546 -0.40099,-0.20734 -1.20422,-0.21146 -1.59733,-0.008 -0.76325,0.39468 -1.0538,1.18722 -0.98759,2.6938 0.0464,1.05518 0.29289,1.69388 0.79052,2.04821 0.43675,0.31099 1.44744,0.35628 1.88091,0.0843 0.30338,-0.19037 0.70695,-0.8266 0.70695,-1.11453 0,-0.23227 0.0965,-0.23824 1.11434,-0.0689 0.769,0.12795 0.97564,0.19634 1.00167,0.33151 0.0467,0.24252 -0.47865,1.3203 -0.84937,1.74251 -0.40215,0.45802 -1.33579,0.91032 -2.13939,1.03642 -0.70221,0.11019 -0.79194,0.11007 -1.55298,-0.002 z m 9.24744,-0.004 c -1.68593,-0.28166 -2.83162,-1.25255 -3.30757,-2.80293 -0.25256,-0.82268 -0.22142,-2.40973 0.0613,-3.12623 0.64206,-1.62698 1.88738,-2.54422 3.62009,-2.66637 1.93024,-0.13608 3.5015,0.72462 4.25087,2.32852 0.63573,1.36068 0.54237,3.18811 -0.22472,4.39846 -0.3522,0.55572 -1.1713,1.27832 -1.74572,1.54004 -0.47818,0.21787 -1.53575,0.44583 -1.9606,0.4226 -0.10667,-0.006 -0.41882,-0.0482 -0.69367,-0.0941 z m 1.82651,-2.01752 c 1.11085,-0.70446 1.37645,-2.95288 0.48223,-4.08238 -0.54157,-0.68408 -1.46313,-0.94309 -2.22426,-0.62516 -0.83073,0.34701 -1.27701,1.0639 -1.35308,2.17356 -0.0635,0.92715 0.13321,1.66455 0.57742,2.16406 0.43809,0.49264 0.79751,0.64988 1.48708,0.65058 0.48189,4.8e-4 0.66658,-0.0498 1.03061,-0.28066 z m -18.248501,0.81459 0,-1.11515 1.066699,0 1.066699,0 0,1.11515 0,1.11515 -1.066699,0 -1.066699,0 z m 23.079481,-3.05455 0,-4.16969 1.01821,0 1.01821,0 0,0.54568 0,0.54568 0.44358,-0.40887 c 1.23125,-1.13488 3.07107,-1.17842 4.10888,-0.0972 l 0.44163,0.4601 0.41813,-0.37148 c 0.72142,-0.64093 1.20049,-0.81934 2.20013,-0.81934 0.78078,0 0.92598,0.0295 1.37784,0.27989 0.49798,0.27595 0.86991,0.70219 1.10961,1.27163 0.0879,0.20887 0.13266,1.22748 0.15864,3.61212 l 0.0362,3.32121 -1.11909,0 -1.11908,0 -0.0281,-3.09609 c -0.0269,-2.96849 -0.0365,-3.10737 -0.23134,-3.3697 -0.42964,-0.57839 -1.40921,-0.5445 -1.99277,0.0689 -0.50675,0.53269 -0.56772,0.9494 -0.56772,3.88042 l 0,2.51644 -1.11518,0 -1.11519,0 0,-3.01088 c 0,-3.22786 -0.0211,-3.38307 -0.50588,-3.72263 -0.27219,-0.19063 -0.96982,-0.19555 -1.32986,-0.009 -0.37991,0.19645 -0.75595,0.66796 -0.87522,1.09741 -0.0576,0.20722 -0.10039,1.48464 -0.1007,3.00305 l -5.4e-4,2.64242 -1.11519,0 -1.11518,0 0,-4.1697 z M 68.018206,37.62827 C 55.977767,36.53491 47.551319,31.32735 42.907631,22.1099 40.680304,17.68879 39.375914,12.0232 39.372142,6.7536 l -10e-4,-1.39743 3.072308,0.0656 c 1.68977,0.0361 3.083964,0.0773 3.09821,0.0915 0.01425,0.0142 -0.08911,0.56993 -0.229679,1.23486 -0.332065,1.57073 -0.374869,4.05005 -0.09083,5.26101 0.266181,1.13482 0.807459,2.12662 1.663461,3.04799 1.29892,1.39812 2.710896,2.27505 4.194662,2.60514 0.961855,0.21399 2.78104,0.1448 3.759,-0.14296 0.99145,-0.29173 2.564633,-1.1014 3.133167,-1.61255 0.604698,-0.54366 1.303229,-1.45942 1.67504,-2.19595 C 60.752904,11.51906 60.49531,8.63733 58.965882,6.09685 58.419972,5.19006 58.376963,5.14271 57.9805,5.01216 56.642231,4.57147 55.766425,3.26039 55.879551,1.86704 c 0.09217,-1.13524 0.684964,-2.012147 1.69702,-2.510365 0.56493,-0.278106 0.738813,-0.317328 1.378408,-0.310917 1.73278,0.01737 3.010518,1.298392 3.010705,3.018452 4.5e-5,0.41148 -0.06291,0.85848 -0.152405,1.08214 -0.18033,0.45068 -0.131401,0.57822 0.666701,1.73787 1.234394,1.79358 3.196507,3.04078 5.449596,3.464 1.201765,0.22573 3.36254,0.15563 4.457843,-0.14463 2.329512,-0.6386 4.261662,-2.13602 5.369092,-4.16105 L 78.031399,3.53988 77.843005,2.98485 c -0.345379,-1.01754 -0.03389,-2.28236 0.756791,-3.073021 0.889848,-0.88982 2.352353,-1.144795 3.459503,-0.603133 1.438917,0.703974 2.10258,2.316244 1.583726,3.847424 -0.245396,0.72419 -1.072217,1.55747 -1.794667,1.80869 -0.443911,0.15436 -0.566699,0.25577 -0.857681,0.70834 -0.519099,0.80738 -1.161532,2.22671 -1.391302,3.07383 -0.317954,1.17223 -0.297921,2.92124 0.04538,3.96162 0.36871,1.11739 0.874241,1.91839 1.812505,2.87187 0.701054,0.71243 0.963011,0.90483 1.752429,1.2871 2.749829,1.33162 5.631187,1.24328 7.817551,-0.23967 1.318837,-0.89453 2.6545,-2.38603 3.073107,-3.43166 0.71734,-1.79183 0.796977,-4.16853 0.224617,-6.70344 l -0.221147,-0.97943 1.652719,-0.0627 c 0.908995,-0.0345 2.29554,-0.0628 3.081212,-0.063 l 1.428502,-3e-4 0.0643,0.25636 c 0.0354,0.14099 0.0345,0.98099 -0.002,1.86667 -0.36927,8.95997 -3.298096,16.33914 -8.589154,21.64035 -5.008588,5.0182 -11.655049,7.76716 -20.609734,8.52413 -1.35605,0.11463 -1.331657,0.115 -3.111456,-0.04661 z m 3.808177,-5.71484 c 3.742476,-0.79629 6.50008,-3.62424 7.213949,-7.39796 0.189361,-1.00102 0.06773,-3.09838 -0.239298,-4.12654 -0.914262,-3.06158 -3.15909,-5.27902 -6.313746,-6.23671 -0.793121,-0.24077 -1.014324,-0.26509 -2.424315,-0.26652 -1.305535,-10e-4 -1.674576,0.0324 -2.327343,0.2128 -3.203673,0.88526 -5.684488,3.36557 -6.562964,6.56161 -0.178901,0.65088 -0.212974,1.02553 -0.211653,2.32728 0.0014,1.40995 0.02575,1.63114 0.26653,2.42424 1.020213,3.36043 3.586766,5.77219 6.897487,6.4815 0.887502,0.19015 2.852454,0.20092 3.701353,0.0203 z m -3.60589,-1.79406 c -2.540546,-0.66826 -4.483457,-2.54168 -5.284641,-5.09562 -0.288595,-0.91996 -0.36424,-2.55846 -0.16196,-3.50818 0.322528,-1.51429 0.943807,-2.65222 2.054362,-3.76274 2.308741,-2.30868 5.500214,-2.83341 8.474325,-1.39334 0.887288,0.42963 1.11578,0.59595 1.890991,1.37647 1.004395,1.01127 1.408353,1.64005 1.831206,2.85034 0.386257,1.10555 0.477285,2.77772 0.216069,3.96913 -0.595424,2.71574 -2.700029,4.87318 -5.423634,5.5598 -1.009529,0.2545 -2.63779,0.25637 -3.596718,0.004 z m 3.491014,-0.74702 c 2.25834,-0.56719 4.146127,-2.46632 4.756374,-4.78496 0.219606,-0.8344 0.224888,-2.36881 0.01102,-3.2 -0.0892,-0.34667 -0.342632,-1.00122 -0.563184,-1.45455 -0.564565,-1.16044 -1.739953,-2.33225 -2.903787,-2.89494 -1.181766,-0.57137 -1.933232,-0.7234 -3.288357,-0.66527 -0.905106,0.0388 -1.261983,0.10065 -1.894444,0.32822 -1.918348,0.69027 -3.408905,2.19606 -4.082569,4.12431 -0.332462,0.95161 -0.419354,2.62575 -0.187722,3.61677 0.515861,2.20705 2.295164,4.13211 4.471179,4.83744 1.116752,0.36198 2.473927,0.39626 3.681494,0.093 z M 69.626596,27.8075 c 0,-0.46457 -9.7e-5,-0.46478 -0.412134,-0.57649 -1.127544,-0.30573 -1.80701,-1.15511 -1.893744,-2.3673 l -0.04752,-0.6642 0.376676,-6.8e-4 c 0.207173,-3.9e-4 0.664968,-0.0279 1.017322,-0.0612 l 0.640643,-0.0605 0.112106,0.32158 c 0.06166,0.17686 0.18378,0.40077 0.271382,0.49757 0.19294,0.21319 0.598907,0.2314 0.676069,0.0303 0.120982,-0.31527 -0.08433,-0.64626 -0.707172,-1.14004 -1.651223,-1.30909 -2.058847,-1.86701 -2.141129,-2.93058 -0.06528,-0.84377 0.222636,-1.5556 0.86153,-2.13 0.268766,-0.24164 0.659061,-0.49039 0.867321,-0.55278 0.373127,-0.1118 0.378654,-0.12038 0.378654,-0.58759 l 0,-0.47412 0.606079,0.0289 0.606079,0.0289 0.02909,0.44928 c 0.02832,0.43729 0.04117,0.4539 0.481067,0.62189 0.896967,0.34255 1.671723,1.42063 1.671723,2.32623 0,0.30623 -0.004,0.30873 -0.59606,0.3706 -0.327834,0.0343 -0.82146,0.0623 -1.096949,0.0623 -0.44761,0 -0.524511,-0.0319 -0.722983,-0.30038 -0.145416,-0.19669 -0.254986,-0.2675 -0.317364,-0.20513 -0.209462,0.20946 -0.01433,0.55553 0.599959,1.06407 1.428109,1.18225 1.635757,1.39001 1.880887,1.88191 0.205449,0.41227 0.252334,0.64322 0.251563,1.23918 -0.0016,1.24751 -0.573767,2.11533 -1.645626,2.49601 l -0.486824,0.1729 0,0.46208 0,0.46209 -0.630322,0 -0.630322,0 0,-0.46474 z M 51.97758,15.84855 c -1.202588,-0.19361 -2.570381,-1.16296 -3.197953,-2.26637 -0.462983,-0.81402 -0.614386,-1.50786 -0.562799,-2.57916 0.04004,-0.83151 0.08686,-1.02973 0.397905,-1.68468 0.842099,-1.77317 2.501768,-2.75196 4.489994,-2.64796 0.772258,0.0404 0.99755,0.095 1.628132,0.39442 2.419125,1.14881 3.393028,3.88111 2.229947,6.25617 -0.649016,1.32531 -1.982081,2.31001 -3.433664,2.53636 -0.712808,0.11115 -0.810012,0.1106 -1.551562,-0.009 z m 34.13436,0.0133 c -2.62387,-0.49637 -4.311231,-2.97917 -3.77082,-5.54844 0.544204,-2.5873 3.168124,-4.1906 5.755369,-3.51673 1.647226,0.42903 2.991477,1.84481 3.339082,3.51673 0.473829,2.27906 -0.835619,4.59277 -3.025716,5.34625 -0.653272,0.22475 -1.694395,0.31636 -2.297915,0.20219 z M 68.907514,5.76375 C 67.844359,5.51441 66.695047,4.69887 66.053994,3.73892 64.62582,1.60027 65.058266,-1.265111 67.052052,-2.874206 c 0.855217,-0.690207 1.638808,-0.974426 2.828655,-1.025992 1.592022,-0.06899 2.791578,0.397349 3.797527,1.476342 0.952229,1.021372 1.378828,2.073047 1.378828,3.399166 0,2.2028 -1.44361,4.11437 -3.581344,4.74226 -0.576172,0.16924 -1.939022,0.19374 -2.568204,0.0462 z"
       id="path3340"
       inkscape:connector-curvature="0"
       sodipodi:nodetypes="csssccssccccccscccscccscsssscccssscscscccccccccccccccsscssscsccccccscccscccscccccssscccsssssssscssssssssscssssssssssssscccccssssssssccscssscsssssssscccsssscssssccccscccccccssscscccccscsccsscsccccccccsssscssccsssssscsssssccc" />
  </g>
  <g
     id="g4162"
     fill="none"
     fill-rule="evenodd">
    <path
       inkscape:connector-curvature="0"
       id="path4164"
       d="m 56.062141,95.9023 c -1.415461,-0.2515 -2.212835,-1.00098 -2.391914,-2.24825 -0.07743,-0.53928 -0.141324,-0.52108 1.265018,-0.36024 1.225775,0.1402 1.279796,0.15744 1.348297,0.43036 0.09043,0.3603 0.524086,0.53594 1.323222,0.53594 1.349744,0 1.660792,-0.35054 1.720894,-1.93939 l 0.03852,-1.01818 -0.421471,0.40198 c -0.719555,0.68628 -1.158218,0.85926 -2.166978,0.85453 -0.749309,-0.004 -0.941335,-0.0401 -1.357617,-0.2585 -1.086413,-0.57005 -1.824444,-1.74638 -1.986362,-3.166 -0.09086,-0.79663 -0.0084,-1.95384 0.187533,-2.63334 0.172332,-0.59751 0.716436,-1.38616 1.216994,-1.76399 0.643712,-0.48587 1.190844,-0.65912 2.077942,-0.65798 0.858461,0.001 1.487134,0.2447 2.129657,0.82516 l 0.3986,0.3601 0,-0.49613 0,-0.49613 1.066698,0 1.066699,0 -7.76e-4,3.95151 c -8.72e-4,4.56909 -0.06163,5.33832 -0.490622,6.20971 -0.329836,0.66997 -0.672042,0.95548 -1.556642,1.29873 -0.602427,0.23376 -2.567118,0.33014 -3.467728,0.17011 z m 2.331158,-5.413 c 0.611472,-0.38778 0.881098,-0.96703 0.935872,-2.01058 0.0568,-1.08205 -0.151392,-1.7428 -0.711904,-2.25945 -0.998528,-0.92038 -2.416762,-0.45091 -2.819147,0.9332 -0.214832,0.73898 -0.147879,2.05348 0.132441,2.60028 0.36144,0.70502 0.821051,1.00923 1.53123,1.01351 0.377015,0.002 0.59198,-0.0617 0.931508,-0.27696 z M 3.5174272,92.70982 C 2.0120687,92.38901 0.88351779,91.19492 0.58172789,89.60363 0.45509206,88.9359 0.45902846,87.94038 0.59113989,87.22338 0.82342639,85.96269 1.6172603,84.89142 2.6926278,84.38745 c 0.5176032,-0.24257 0.647092,-0.26067 1.8653448,-0.26067 1.2098672,0 1.3502067,0.0193 1.8508661,0.25404 0.2979546,0.13973 0.7018173,0.41412 0.8974728,0.60977 0.3853472,0.38534 0.9769193,1.46101 0.905641,1.64675 -0.024186,0.063 -0.38712,0.17155 -0.8065211,0.24116 -0.4194012,0.0696 -0.8784584,0.14905 -1.0201272,0.17652 -0.2293663,0.0445 -0.2788255,0.002 -0.4515492,-0.38855 -0.236741,-0.53517 -0.5607019,-0.76113 -1.1760441,-0.82025 -0.619234,-0.0595 -1.0949163,0.10945 -1.4514545,0.51551 -0.3827905,0.43596 -0.5134973,0.9591 -0.50695,2.02901 0.00796,1.29998 0.3156433,2.03808 0.9938352,2.38405 0.6189614,0.31576 1.4292829,0.22203 1.9010921,-0.21991 0.1182617,-0.11078 0.2868905,-0.41778 0.3747306,-0.68223 0.1462592,-0.44034 0.1812341,-0.47659 0.4153007,-0.43044 0.1405753,0.0277 0.6156023,0.10517 1.0556155,0.17214 0.960099,0.1461 0.9772916,0.19265 0.456001,1.23462 -0.638078,1.27541 -1.5926304,1.8467 -3.1954773,1.91246 -0.4800145,0.0197 -1.057354,-0.004 -1.282977,-0.0516 z m 15.3570078,-0.0581 c -1.202908,-0.29115 -2.205861,-1.04909 -2.677548,-2.02343 -0.455499,-0.94091 -0.600088,-2.39049 -0.33858,-3.39446 0.344109,-1.32108 1.090989,-2.24714 2.258414,-2.8002 0.624247,-0.29573 0.693633,-0.30686 1.913097,-0.30686 l 1.265358,0 0.733108,0.36215 c 1.837756,0.90785 2.721973,3.01749 2.163451,5.16173 -0.600877,2.30686 -2.877281,3.59165 -5.3173,3.00107 z m 1.905322,-1.81922 c 0.412579,-0.17271 0.984804,-0.81767 1.14187,-1.28699 0.170632,-0.50987 0.170728,-1.62762 1.94e-4,-2.21555 -0.289504,-0.99806 -1.375006,-1.66822 -2.297192,-1.41823 -1.020354,0.2766 -1.514763,1.0061 -1.572519,2.32027 -0.04253,0.96771 0.09343,1.51646 0.497022,2.00608 0.531589,0.64489 1.496101,0.90191 2.230625,0.59442 z m 19.881104,1.7988 c -1.428524,-0.51146 -2.237093,-1.64286 -2.463294,-3.44679 -0.219244,-1.74845 0.27417,-3.47587 1.234206,-4.3209 1.208398,-1.06364 3.130044,-1.06909 4.333721,-0.0123 l 0.357305,0.31371 0,-2.04641 0,-2.04641 1.115185,0 1.115185,0 0,5.7697 0,5.7697 -1.018213,0 -1.018212,0 0,-0.59509 0,-0.59509 -0.483995,0.45271 c -0.266198,0.24899 -0.691665,0.5419 -0.945483,0.65091 -0.66621,0.28613 -1.599561,0.33067 -2.226405,0.10624 z m 2.261038,-1.75671 c 0.812148,-0.3688 1.276488,-1.4702 1.16868,-2.77206 -0.08288,-1.00087 -0.231246,-1.40422 -0.681995,-1.85411 -0.958666,-0.95685 -2.432975,-0.4794 -2.839692,0.91961 -0.114744,0.3947 -0.142309,0.77605 -0.105644,1.46154 0.05624,1.05148 0.202847,1.46719 0.679151,1.92578 0.535297,0.51538 1.117543,0.61984 1.7795,0.31924 z m 23.121103,1.8315 c -1.366238,-0.28824 -2.393559,-1.30795 -2.781751,-2.76114 -0.176371,-0.66024 -0.167202,-2.29614 0.01683,-3.00267 0.302601,-1.16173 1.029175,-2.07598 2.054564,-2.58528 0.41029,-0.20378 0.597195,-0.23023 1.627204,-0.23023 1.054642,0 1.214733,0.0239 1.708659,0.25553 0.299743,0.14054 0.718703,0.41247 0.931024,0.60428 0.762936,0.68925 1.282256,2.07479 1.286025,3.4311 l 0.0017,0.60606 -2.718276,0 c -3.018748,0 -2.902504,-0.028 -2.718871,0.65398 0.242765,0.90153 0.863713,1.41806 1.714362,1.42608 0.60749,0.006 0.95206,-0.21087 1.246131,-0.7833 l 0.197798,-0.38503 1.062976,0.1788 c 0.584638,0.0983 1.079759,0.19558 1.100271,0.21609 0.02051,0.0205 -0.105547,0.30528 -0.280129,0.63282 -0.629351,1.18075 -1.598002,1.73482 -3.143762,1.79824 -0.480015,0.0197 -1.067146,-0.005 -1.304738,-0.0553 z m 2.613868,-5.33395 c 0,-0.44028 -0.220891,-0.88501 -0.608674,-1.22548 -0.630165,-0.55327 -1.37783,-0.54273 -2.009963,0.0284 -0.35175,0.31778 -0.476692,0.56332 -0.623084,1.22449 l -0.05904,0.26667 1.650382,0 1.650382,0 0,-0.29403 z m 20.655166,5.30082 c -0.673804,-0.14698 -1.481064,-0.58575 -1.849336,-1.00518 -0.898246,-1.02301 -1.270845,-2.84482 -0.920177,-4.49917 0.273197,-1.28887 1.017603,-2.28885 2.07165,-2.78291 0.50246,-0.23552 0.657617,-0.25893 1.716076,-0.25893 1.074663,0 1.205404,0.0205 1.709277,0.26804 0.670635,0.32946 1.375224,1.06497 1.700226,1.77485 0.258403,0.56441 0.50885,1.75309 0.514504,2.44196 l 0.0034,0.41212 -2.76372,0 -2.763719,0 0,0.27644 c 0,1.11966 1.140191,2.06894 2.129143,1.77266 0.384714,-0.11526 0.97398,-0.68235 0.97398,-0.93732 0,-0.0828 0.09105,-0.14195 0.218189,-0.14177 0.27673,3.8e-4 1.947785,0.29085 2.005532,0.34859 0.0913,0.0913 -0.39884,0.93513 -0.789043,1.35844 -0.877269,0.95169 -2.369142,1.31832 -3.955966,0.97218 z m 2.714692,-5.12801 c -2.9e-4,-0.0667 -0.04889,-0.29576 -0.107977,-0.50909 -0.327752,-1.18328 -1.568466,-1.65721 -2.492805,-0.95221 -0.361422,0.27566 -0.690291,0.89956 -0.693616,1.31585 l -0.0021,0.26666 1.648534,0 c 1.254468,0 1.648406,-0.029 1.647993,-0.12121 z m -82.1352619,0.89667 0,-4.16969 1.0182129,0 1.018212,0 0,0.54087 0,0.54087 0.319251,-0.41855 c 0.505312,-0.66249 0.865036,-0.85713 1.584094,-0.85713 0.63612,0 1.39286,0.22929 1.394881,0.42265 6.79e-4,0.0609 -0.136648,0.51214 -0.305076,1.00282 l -0.306233,0.89214 -0.255867,-0.13231 c -0.445436,-0.23034 -0.918087,-0.2729 -1.292646,-0.11641 -0.753964,0.31502 -0.914808,0.97334 -1.004326,4.11062 l -0.06716,2.35382 -1.051669,0 -1.0516689,0 z M 27.066592,90.79314 C 26.390691,88.6713 25.168016,84.80743 25.071044,84.48686 l -0.06698,-0.22143 1.095155,0.0275 1.095153,0.0275 0.730648,2.54 c 0.401857,1.39699 0.755922,2.56409 0.786814,2.59353 0.03089,0.0294 0.361626,-1.11355 0.734967,-2.53999 l 0.678802,-2.59354 1.099747,0 1.099748,0 0.653929,2.5445 c 0.359661,1.39947 0.670905,2.59542 0.691655,2.65767 0.02075,0.0622 0.386912,-1.08278 0.813694,-2.5445 l 0.775966,-2.65767 1.085674,-0.0274 c 0.6318,-0.016 1.085674,0.0107 1.085674,0.0637 0,0.0866 -0.200429,0.71905 -1.902476,6.00324 l -0.727199,2.25767 -1.083729,-0.0274 -1.083728,-0.0274 -0.68022,-2.54545 c -0.37412,-1.4 -0.705697,-2.54546 -0.736836,-2.54546 -0.03114,0 -0.358464,1.15616 -0.727389,2.56924 l -0.670774,2.56923 -1.086786,4.6e-4 -1.086787,4.7e-4 z m 45.663128,-2.35152 0,-4.16969 1.018212,0 1.018212,0 0,0.54568 0,0.54568 0.426737,-0.39334 c 0.686053,-0.63236 1.148132,-0.82354 2.108088,-0.8722 1.336129,-0.0677 2.235666,0.35241 2.728754,1.27446 0.209048,0.39092 0.216222,0.50316 0.24424,3.82093 l 0.02887,3.41818 -1.059122,0 -1.059124,0 -0.04705,-2.83636 c -0.0497,-2.99648 -0.08011,-3.208 -0.528773,-3.67834 -0.713689,-0.74817 -2.26153,-0.17323 -2.543007,0.94459 -0.06306,0.2504 -0.105667,1.45816 -0.105667,2.99487 l 0,2.57524 -1.115185,0 -1.115185,0 z m 9.891206,0 0,-4.16969 1.066699,0 1.066699,0 0,4.16969 0,4.1697 -1.066699,0 -1.066699,0 z m -34.328305,-0.0485 0,-1.11515 2.181884,0 2.181884,0 0,1.11515 0,1.11515 -2.181884,0 -2.181884,0 z m 34.328305,-6.30303 0,-1.01818 1.066699,0 1.066699,0 0,1.01818 0,1.01818 -1.066699,0 -1.066699,0 z M 41.965787,34.835026 c -4.359786,-2.329535 -7.927166,-4.278561 -7.927512,-4.33117 -3.87e-4,-0.05261 0.245275,-0.713213 0.545823,-1.468005 l 0.546453,-1.372352 0.544489,0.178641 c 0.29947,0.09825 2.071809,0.664445 3.938532,1.258207 1.866723,0.593761 4.528621,1.443259 5.91533,1.887772 3.550916,1.138258 4.283073,1.338348 4.692774,1.282485 0.192391,-0.02623 1.658932,-0.602044 3.25898,-1.27958 7.635183,-3.233098 13.394147,-5.714115 13.508695,-5.819679 0.102009,-0.09401 0.05523,-0.170893 -0.241817,-0.397455 -2.092836,-1.596237 -2.495081,-3.710277 -1.144465,-6.014861 1.789943,-3.054213 6.053204,-2.786531 7.663677,0.481188 0.349019,0.708175 0.375392,0.821041 0.373865,1.6 -0.0026,1.346289 -0.473038,2.346543 -1.730285,3.67925 l -0.640156,0.678579 4.148059,1.768272 c 9.564988,4.077448 12.368811,5.23319 12.695685,5.23319 0.182379,0 0.487042,-0.06495 0.677029,-0.144325 0.189987,-0.07938 1.752371,-1.082487 3.471965,-2.229127 1.719594,-1.146641 3.493716,-2.25632 3.942493,-2.465955 1.952506,-0.912065 3.759601,-0.895492 5.700779,0.05228 2.01134,0.982036 3.11003,2.778628 3.11398,5.092061 0.002,1.4146 -0.44072,2.475489 -1.48639,3.558479 -0.95733,0.991498 -2.2583,1.730201 -3.741128,2.124254 -0.915615,0.243317 -0.995579,0.247678 -5.631975,0.30718 -4.342165,0.05573 -4.730517,0.07435 -5.059427,0.242644 l -0.356254,0.182285 -1.002985,-0.682701 c -10.497804,-7.145537 -25.546949,-7.20687 -36.14275,-0.147299 -0.821432,0.547288 -1.541454,0.991962 -1.600048,0.988164 -0.05859,-0.0038 -3.673632,-1.91289 -8.033416,-4.242422 z m 56.386977,-0.204802 c 1.010872,-0.130353 1.679046,-0.379501 2.165076,-0.807307 0.72887,-0.641557 0.95812,-1.327604 0.68371,-2.046096 -0.41275,-1.080744 -1.740457,-1.595375 -3.07769,-1.192938 -0.530207,0.159562 -6.09659,3.813389 -6.09659,4.001856 0,0.112325 0.476102,0.134449 2.836448,0.131809 1.560047,-0.0017 3.130121,-0.04104 3.489046,-0.08732 z M 60.143933,32.581949 c 0.281983,-0.109657 1.394061,-0.575072 2.471285,-1.034254 1.700776,-0.724982 1.973542,-0.870979 2.072195,-1.109142 0.09382,-0.226502 0.08528,-0.317489 -0.04903,-0.522472 -0.08945,-0.136514 -0.226462,-0.272699 -0.30447,-0.302632 -0.07801,-0.02993 -1.046403,0.340302 -2.15199,0.822747 -3.234453,1.411416 -3.102429,1.341268 -3.178799,1.688968 -0.05439,0.247643 -0.02608,0.338801 0.149372,0.480867 0.27402,0.221881 0.364603,0.219682 0.991437,-0.02408 z M 32.207356,29.237507 c -2.007879,-0.95413 -3.279812,-2.21509 -4.184563,-4.148466 -0.592382,-1.265866 -0.788049,-2.136479 -0.84421,-3.756256 -0.04245,-1.224381 -0.02157,-1.520978 0.15704,-2.230304 0.816545,-3.242843 3.676578,-6.041641 6.841252,-6.694775 2.169965,-0.447844 3.457566,-0.206965 9.461061,1.769932 1.466711,0.482974 2.950391,0.938354 3.297069,1.011955 1.454797,0.30886 3.137441,0.09065 4.509226,-0.584766 3.177008,-1.564245 4.627505,-5.670223 3.117966,-8.82615 C 53.834118,4.256515 52.823555,3.268195 51.082346,2.375422 50.509964,2.081944 49.997221,1.758809 49.942918,1.657345 49.81207,1.412862 49.817224,0.821291 49.952518,0.556769 c 0.303132,-0.592726 0.861173,-0.688874 1.870946,-0.322357 2.567118,0.931785 4.698547,3.467458 5.354483,6.370007 0.246485,1.090707 0.226662,3.009891 -0.04232,4.097038 -0.830452,3.356478 -3.573205,6.011255 -6.923699,6.701617 -0.944884,0.194691 -2.756,0.199723 -3.657173,0.01016 -0.376121,-0.07912 -2.026295,-0.576928 -3.667055,-1.106244 -1.640761,-0.529318 -3.470642,-1.118267 -4.066402,-1.308774 -1.887433,-0.603549 -3.393912,-0.635196 -4.986724,-0.104757 -2.620983,0.872841 -4.473603,3.47849 -4.479301,6.299988 -0.0022,1.06604 0.19319,1.875349 0.704522,2.918851 0.598899,1.222203 1.915919,2.52812 3.250566,3.223162 0.693525,0.361164 0.676749,0.28477 0.282285,1.285431 -0.197723,0.501572 -0.385894,0.94263 -0.418162,0.980127 -0.03227,0.0375 -0.46747,-0.126083 -0.967128,-0.363511 z"
       style="fill:#000000;fill-opacity:1"
       sodipodi:nodetypes="cssssscsccscccscccccssscccsssscccsssscsccccsssscsccsccssssscssscsssssccssscccccccccccssccssssssscsscscsccsccscccsccccsccccccccssssssccccsssccsccccsccsccccccccsscscscsccccsscccscscccscsccsscccssscccsccccccscsscccsscscccccccccccccccccccccccccccccccscscssscssssscscsscssscsssscsscsssssscssssccscssssssssssssscsssssssscsssss" />
  </g>
</svg>
